# xmcd
#
# Track frame offsets:
#	150
#	14061
#	33669
#	57925
#
# Disc length: 966 seconds
#
# Revision: 0
# Processed by: cddbd v1.4PL0 Copyright (c) Steve Scherf et al.
# Submitted via: dBpowerAMP V4.0
#
DISCID=3203c404
DTITLE=Theater Fire - Theater Fire
DYEAR=2001
DGENRE=Country
TTITLE0=El Chupacava
TTITLE1=Brothers in Blood
TTITLE2=Ego the Kid
TTITLE3=The Lamb
EXTD=Dallas area band. used to be known as Vena Cava and then changed their name to Theater Fire.
EXTT0=
EXTT1=
EXTT2=
EXTT3=
PLAYORDER=
